<svg width="122" height="91" viewBox="0 0 122 91" fill="none" xmlns="http://www.w3.org/2000/svg">
<path fill-rule="evenodd" clip-rule="evenodd" d="M21.3863 20.717C10.1833 32.111 0.683302 42.331 0.277302 43.428C-1.1487 47.274 2.4683 51.932 21.9103 71.292L41.4783 90.776L46.9973 85.326C50.0323 82.328 52.5163 79.417 52.5163 78.856C52.5163 78.296 47.2363 72.543 40.7823 66.072L29.0473 54.307H75.2823H121.516V45.807V37.307H75.5163C50.2163 37.307 29.5163 36.962 29.5163 36.541C29.5163 36.119 34.6913 30.614 41.0163 24.307C47.3413 18 52.4983 12.382 52.4773 11.823C52.4553 11.264 50.0343 8.375 47.0973 5.404L41.7573 0L21.3863 20.717Z" fill="var(--blue)"/>
</svg>
