<svg id="moon-icon" xmlns="http://www.w3.org/2000/svg" fill="none" viewBox="0 0 48 48"><path fill="#000" fill-rule="evenodd" d="M20.78 39.678c9.492 1.845 18.155-4.765 19.128-13.972-14.523 8.932-26.51-3.081-17.614-17.626-9.208.968-15.826 9.635-13.98 19.131.895 4.614 3.912 8.648 8.08 10.894a1 1 0 1 1-.948 1.76C10.754 37.338 7.36 32.8 6.35 27.593 4.19 16.477 12.376 6.352 23.422 6c.957-.028 1.64.896 1.384 1.797l-.135.29c-9.245 13.586 1.665 24.52 15.228 15.241l.284-.134c.904-.264 1.842.421 1.806 1.381-.351 11.044-10.475 19.226-21.59 17.066a1 1 0 1 1 .382-1.963Zm-8.548-13.267c.907 4.67 4.68 8.442 9.35 9.349a1 1 0 1 1-.382 1.963c-5.47-1.062-9.87-5.46-10.931-10.931a1 1 0 1 1 1.963-.381Z" clip-rule="evenodd"/></svg>