<svg id="plus" width="512" height="512" viewBox="0 0 512 512" fill="currentColor " xmlns="http://www.w3.org/2000/svg">
<path fill-rule="evenodd" clip-rule="evenodd" d="M241 1.57003C224.784 5.81003 208.756 18.618 201.641 33.022C194.803 46.865 195.025 43.845 195.012 123.25L195 195H124.049C76.747 195 51.332 195.363 47.799 196.09C26.518 200.468 7.056 219.543 1.509 241.46C-0.424998 249.098 -0.424998 262.902 1.509 270.54C5.846 287.673 18.558 303.387 34.077 310.798C38.71 313.01 44.885 315.31 47.799 315.91C51.332 316.637 76.747 317 124.049 317H195V387.951C195 435.253 195.363 460.668 196.09 464.201C200.468 485.482 219.543 504.944 241.46 510.491C249.098 512.425 262.902 512.425 270.54 510.491C287.673 506.154 303.387 493.442 310.798 477.923C313.01 473.29 315.31 467.115 315.91 464.201C316.637 460.668 317 435.253 317 387.951V317H387.951C435.253 317 460.668 316.637 464.201 315.91C485.482 311.532 504.944 292.457 510.491 270.54C512.425 262.902 512.425 249.098 510.491 241.46C506.154 224.327 493.442 208.613 477.923 201.202C473.29 198.99 467.115 196.69 464.201 196.09C460.668 195.363 435.253 195 387.951 195H317V124.049C317 76.747 316.637 51.332 315.91 47.799C311.532 26.518 292.457 7.05603 270.54 1.50903C263.122 -0.368973 248.297 -0.337973 241 1.57003Z" fill="currentColor"/>
</svg>
