<svg id="small-arrow" width="18" height="12" viewBox="0 0 18 12" fill="none" xmlns="http://www.w3.org/2000/svg">
<path d="M16 11C15.722 11 15.445 10.884 15.247 10.659L9 3.519L2.753 10.659C2.66701 10.7595 2.56194 10.8419 2.44389 10.9015C2.32583 10.9611 2.19712 10.9967 2.06521 11.0062C1.9333 11.0157 1.80082 10.999 1.67543 10.9569C1.55003 10.9149 1.43422 10.8484 1.3347 10.7613C1.23518 10.6742 1.15392 10.5683 1.09562 10.4496C1.03733 10.3309 1.00316 10.2018 0.995101 10.0698C0.987037 9.93776 1.00524 9.80547 1.04865 9.68055C1.09206 9.55563 1.15982 9.44056 1.248 9.342L8.248 1.342C8.34186 1.23459 8.45761 1.1485 8.58749 1.08952C8.71737 1.03054 8.85836 1.00002 9.001 1.00002C9.14364 1.00002 9.28463 1.03054 9.41451 1.08952C9.54438 1.1485 9.66014 1.23459 9.754 1.342L16.754 9.342C16.8803 9.48656 16.9624 9.66442 16.9903 9.85435C17.0183 10.0443 16.991 10.2382 16.9117 10.4131C16.8324 10.5879 16.7044 10.7362 16.5431 10.8403C16.3818 10.9444 16.194 10.9998 16.002 11H16Z" fill="var(--blue)"/>
</svg>
