<svg id="sun-icon" xmlns="http://www.w3.org/2000/svg" fill="none" viewBox="0 0 48 48"><path fill="#000" fill-rule="evenodd" d="M25 9V5a1 1 0 1 0-2 0v4a1 1 0 1 0 2 0Zm-1 25a9.998 9.998 0 0 0 8.908-5.453 1 1 0 0 1 1.781.91A11.997 11.997 0 0 1 24.001 36c-6.628 0-12-5.373-12-12 0-2.953 1.067-5.658 2.836-7.748l-4.98-4.98a1 1 0 0 1 1.415-1.415l4.98 4.98A11.952 11.952 0 0 1 24 12c6.29 0 11.45 4.841 11.959 11H43a1 1 0 1 1 0 2H33a1 1 0 1 1 0-2h.951c-.502-5.052-4.766-9-9.95-9a9.958 9.958 0 0 0-6.33 2.258l1.037 1.035a1 1 0 0 1-1.415 1.415l-1.035-1.036A9.959 9.959 0 0 0 14 24c0 5.522 4.477 10 10 10Zm-6-10a6 6 0 0 0 6 6 1 1 0 1 1 0 2 8 8 0 0 1-8-8 1 1 0 1 1 2 0Zm7 15v4a1 1 0 1 1-2 0v-4a1 1 0 1 1 2 0ZM9 25H5a1 1 0 1 1 0-2h4a1 1 0 1 1 0 2Zm24.9 10.315 2.828 2.828a1 1 0 0 0 1.414-1.415L35.314 33.9a1 1 0 0 0-1.414 1.415ZM12.685 33.9l-2.828 2.828a1 1 0 1 0 1.415 1.414l2.828-2.828a1 1 0 0 0-1.415-1.414ZM33.9 12.685l2.828-2.828a1 1 0 1 1 1.415 1.415L35.315 14.1a1 1 0 0 1-1.414-1.415Z" clip-rule="evenodd"/></svg>