<svg id="logo" viewBox="0 0 407 406" fill="none" xmlns="http://www.w3.org/2000/svg">
<path fill-rule="evenodd" clip-rule="evenodd" d="M136.112 1.58101C122.276 5.30201 109.944 15.482 103.285 28.681L99.409 36.362L93.68 37.664C68.189 43.453 48.153 68.333 47.943 94.46L47.887 101.5L41.832 105.911C22.287 120.149 12.464 148.676 19.345 171.217C20.61 175.364 20.604 176.084 19.293 177.172C16.021 179.887 8.74699 190.315 5.93799 196.318C-3.55601 216.608 -1.208 241.123 11.893 258.474C15.677 263.486 15.689 263.534 14.259 267.506C12.179 273.28 11.498 287.766 12.956 295.216C14.526 303.238 19.881 314.864 25.153 321.699C35.328 334.887 57.273 346 73.141 346C77.345 346 78.017 346.288 78.395 348.25C80.553 359.445 81.619 362.975 84.742 369.266C87.172 374.161 90.462 378.602 94.917 383.001C126.68 414.368 179.606 401.102 192.661 358.5C194.354 352.977 194.5 348.006 194.5 296V239.5L192.217 233.853C189.404 226.896 183.528 220.068 177.247 216.458C167.544 210.881 163.627 205.018 163.58 196C163.541 188.505 166.909 182.53 173.518 178.367C184.185 171.65 189.292 165.796 192.354 156.779C193.682 152.866 193.93 143.774 194.056 94.35C194.199 38.288 194.14 36.319 192.143 30.652C186.836 15.59 176.906 6.31101 161.068 1.61201C154.439 -0.354986 143.362 -0.368992 136.112 1.58101ZM243.887 1.45102C231.02 4.99902 221.007 13.161 215.259 24.788L211.5 32.392L211.215 82.706L210.93 133.021L213.419 135.51C217.019 139.11 220.754 138.745 226.07 134.274C228.507 132.225 247.15 114.576 267.5 95.054C287.85 75.531 309.389 54.884 315.365 49.171C327.663 37.414 333.623 34.031 343.361 33.277C348.079 32.911 350.889 33.311 355.5 35.003C360.76 36.932 363.138 38.85 374.785 50.554C389.081 64.92 391.738 69.058 392.709 78.471C393.109 82.345 392.663 85.751 391.067 91.004C388.463 99.577 393.226 94.64 329.5 154.836C304.75 178.215 279.016 202.678 272.313 209.198C257.112 223.985 252.631 226.382 241.185 225.847C224.367 225.061 212.625 213.227 212.565 197C212.517 184.248 211.844 185.048 266.415 133C293.23 107.425 316.144 85.953 317.335 85.285C320.792 83.346 329.037 83.725 332.759 85.995C336.552 88.307 339.728 93.092 340.626 97.846C342.074 105.51 341.352 106.373 302.775 143.098C282.824 162.092 264.138 179.801 261.25 182.453C256.727 186.606 256 187.787 256 190.982C256 195.522 258.434 198 262.892 198C265.534 198 267.535 196.672 273.813 190.749C344.731 123.855 350.026 118.646 352.756 113.087C356.677 105.103 356.663 94.869 352.72 86.839C347.435 76.077 338.087 69.943 325.857 69.212C314.387 68.527 310.642 70.611 292.805 87.606C284.785 95.248 262.419 116.533 243.103 134.906C223.786 153.279 206.644 170.332 205.009 172.801C195.151 187.682 195.081 207.083 204.832 221.256C208.303 226.301 215.955 233.567 219.496 235.18L221.989 236.316L222.244 320.889L222.5 405.461L243.282 385.069L264.064 364.677L284.313 384.838C295.45 395.927 304.886 405 305.281 405C305.677 405 306 358.296 306 301.213V197.426L329.211 175.463C394.263 113.908 398.654 109.478 402.668 101.357C405.937 94.744 406.445 92.72 406.823 84.829C407.675 67.003 403.573 58.862 383.416 38.369C369.069 23.784 364.53 20.942 352.211 18.829C338.678 16.509 324.395 21.111 313.327 31.358C309.975 34.461 306.836 37 306.352 37C305.867 37 304.007 33.858 302.218 30.018C298.31 21.63 289.553 11.916 281.564 7.10501C270.827 0.64101 255.284 -1.69198 243.887 1.45102ZM162 17.57C172.533 22.456 178.403 30.715 179.592 42.325C180.593 52.095 180.195 52.522 173.4 48.947C167.261 45.718 164.711 45.773 161.75 49.198C159.07 52.297 159.501 56.575 162.707 58.703C164.196 59.691 167.726 62.78 170.551 65.568C177.538 72.461 179 77.064 179 92.178C179 98.68 178.83 104 178.622 104C178.414 104 176.629 103.325 174.654 102.5C172.574 101.631 167.99 101 163.753 101C157.875 101 155.077 100.418 149.471 98.027C141.13 94.47 140.046 94.389 136.635 97.073C131.509 101.104 133.952 107.77 141.5 110.352C146.201 111.959 146.364 113.861 142.392 120.723C137.623 128.961 126.363 132.938 117.449 129.534C105.167 124.843 99.564 112.893 103.422 99.621C105.045 94.039 107.816 90.611 117.44 82.286C120.699 79.467 120.74 75.649 117.545 72.455C114.182 69.091 110.973 69.374 105.551 73.513C95.438 81.232 89.613 90.822 87.759 102.803C86.824 108.843 86.931 110.84 88.497 116.627C89.854 121.64 90.02 123.493 89.137 123.788C86.08 124.807 78.044 132.256 75.17 136.735C70.084 144.662 68.694 149.951 69.195 159.484C70.118 177.082 81.051 189.98 98.925 194.559C108.932 197.123 120.551 194.872 130.171 188.506C137.068 183.941 137.371 176.639 130.777 173.908C128.18 172.832 127.336 172.892 125.113 174.308C115.571 180.388 108.494 181.864 100.287 179.487C82.845 174.436 77.789 152.172 91.375 140.244C96.687 135.58 98.052 135.497 103.968 139.478C118.899 149.526 137.658 147.456 150.008 134.398C154.934 129.189 159.97 120.285 159.99 116.75C160.01 113.134 170.995 115.324 175.921 119.926L179 122.802V137.085C179 155.039 177.827 158.138 169 163.5C160.327 168.769 153.631 176.594 150.98 184.559C148.023 193.445 148.45 203.382 152.105 210.768C154.088 214.776 154.359 216 153.26 216C152.471 216 149.009 217.575 145.566 219.5C140.657 222.246 138.19 223 134.122 223C125.042 223 117.895 218.605 113.792 210.5C110.769 204.53 109.062 203 105.418 203C101.637 203 98 206.76 98 210.668C98 214.442 102.699 222.752 107.61 227.663C110.079 230.132 115.103 233.557 118.775 235.276C124.532 237.97 126.57 238.4 133.566 238.4C141.225 238.4 142.255 238.125 151.897 233.5C158.015 230.566 163.492 228.6 165.55 228.6C169.88 228.6 173.838 231.492 176.824 236.837C179.043 240.809 179.163 242.073 179.491 264.973L179.835 288.95L175.104 286.553C168.361 283.136 159.84 281.794 152.5 282.994C145.869 284.077 135.394 288.803 132.477 292.025C129.768 295.018 129.993 300.766 132.911 303.129C136.189 305.784 139.121 305.464 145 301.809C155.222 295.455 167.339 297.034 174.982 305.716C178.855 310.116 179 310.535 179 317.275C179 321.121 178.471 326.034 177.824 328.193C176.358 333.086 169.967 340.466 165.002 342.999C160.968 345.057 160 346.591 160 350.927C160 357.032 167.562 359.226 174.5 355.133C176.777 353.789 177.997 353.492 177.99 354.284C177.976 356.095 173.46 365.459 170.99 368.799C167.886 372.999 163 376 161 377.5C158.5 379 155.943 380.771 154 381.5C150 383 149 383.747 145 384.396C137.189 385.664 135.157 385.722 129.454 384.841C122.539 383.773 112.971 379.563 108.101 375.446C104.053 372.022 102.5 369.5 101 367C99.2 364 97.5 361 96 357C95.5 354.5 93.998 353.164 94.022 346.072C94.068 332.355 101.88 323.793 114.29 323.86C119.453 323.888 120.647 323.86 123.5 326C125.5 327.5 126 328 128 330.5C129 333 129.284 332.68 130.338 337.088C131.288 341.062 134.85 345 137.496 345C141.077 345 146 340.369 146 337C146 331.8 141.814 322.941 137.063 318.089C128.002 308.833 116.106 305.95 103.176 309.878C94.96 312.373 86.878 318.985 82.918 326.448C80.589 330.839 80.341 331 75.912 331C69.643 331 56.902 327.616 50.927 324.364C45.203 321.248 36.512 312.472 32.717 305.975C26.725 295.717 25.483 280.477 29.838 270.633C32.198 265.298 38.438 258.838 43.944 256.029C49.661 253.112 51.604 249.871 49.982 245.956C47.67 240.375 42.793 239.551 35.109 243.445C32.456 244.789 28.929 247.03 27.271 248.425L24.258 250.961L21.154 245.137C15.716 234.934 13.753 222.126 16.079 212.028C17.34 206.557 22.098 196.527 25.299 192.591L27.665 189.682L31.74 194.102C36.982 199.789 47.416 206 51.727 206C55.783 206 59 202.988 59 199.191C59 195.626 57.605 193.945 52 190.759C32.691 179.783 26.349 153.839 37.783 132.604C41.576 125.56 51.408 115.873 58 112.687C61.025 111.224 65.952 109.566 68.948 109.002C78.779 107.151 82.081 100.77 75.898 95.568C73.13 93.238 72.254 93.03 67.741 93.629L62.686 94.299L63.268 89.389C65.819 67.85 85.666 50.669 108.02 50.649C113.965 50.644 116.704 51.176 121.106 53.191C127.514 56.125 132.925 61.139 135.623 66.642C136.655 68.748 138.738 71.153 140.25 71.986C142.708 73.339 143.29 73.338 145.725 71.975C147.224 71.137 149.107 69.282 149.909 67.853C151.255 65.455 151.146 64.818 148.499 59.586C143.295 49.3 130.67 39.342 120.389 37.413C116.075 36.604 116.068 34.836 120.355 29C129.529 16.513 148.496 11.307 162 17.57ZM267.833 16.845C275.029 19.579 281.375 24.341 284.885 29.641C286.598 32.227 288 34.891 288 35.56C288 36.23 286.475 37.064 284.611 37.413C278.845 38.495 269.465 43.81 264.234 48.959C255.06 57.989 252.609 67.154 258.248 71.345C261.815 73.996 265.688 72.782 268.494 68.131C273.774 59.378 281.38 53.405 289.5 51.631C292.32 51.015 292.171 51.285 287 56.135C275.898 66.551 244.245 96.711 235.5 105.206L226.5 113.948L225.812 101.224C224.536 77.615 228.041 68.631 242.401 58.703C248.261 54.652 243.65 45.02 236.532 46.444C234.882 46.774 231.848 48.159 229.788 49.522C227.728 50.885 225.744 52 225.379 52C224.125 52 225.795 36.501 227.505 32.252C229.643 26.942 238.49 18.7 244.233 16.668C250.356 14.501 261.893 14.587 267.833 16.845ZM378.209 144.021C372.988 148.837 377.5 144.5 371.797 149.5C372.721 153.182 371.166 167.911 368.398 174C365.466 180.452 359.138 187.332 353.5 190.199C347.336 193.333 346 194.901 346 199C346 209.944 358.206 207.889 371.797 194.657L377.095 189.5L379.117 192C380.229 193.375 382.783 197.87 384.794 201.988C388.065 208.691 388.489 210.481 388.833 219.041C389.27 229.942 387.471 238.814 383.421 245.725C380.753 250.278 379.056 250.977 376.922 248.406C374.598 245.606 365.607 241.019 362.424 241.009C354.927 240.987 352.36 250.566 358.813 254.487C370.944 261.859 375.428 267.693 377.205 278.42C379.819 294.191 371.86 311.439 358.926 318.038C354.73 320.178 353.48 320.717 351.5 321C348 321.5 347 321.5 341.5 320C336 316.5 335.693 318.175 332.37 311.748C330.105 307.369 330.287 299.438 332.727 296.143C335.668 292.171 340.9 289 344.513 289C351.866 289 355.826 280.826 350.873 275.873C349.025 274.025 347.928 273.812 342.487 274.249C335.606 274.801 327.187 278.676 323.963 282.774C322.445 284.704 321.751 284.937 320.121 284.065C319.027 283.479 317.877 283 317.566 283C317.255 283 317.002 290.313 317.004 299.25C317.007 313.971 317.205 315.829 319.106 319C323.808 326.843 330.21 331.797 339.028 334.416C346.105 336.517 351.45 336.414 359.187 334.024C380.186 327.538 394.178 305.606 392.695 281.5C392.391 276.55 391.436 270.534 390.573 268.131L389.005 263.762L392.379 259.131C400.655 247.774 404.257 236.562 404.308 222C404.36 207.207 399.256 193.446 389.227 181.343L384.385 175.5L385.604 171.338C387.75 164.005 388.26 154.709 386.957 146.635C386.275 142.404 385.443 138.779 385.108 138.58C384.774 138.38 381.669 140.829 378.209 144.021ZM317 236.622C316.757 248.476 317 251.5 317 257C317 259 320.341 255.226 323.588 248.382C330.003 234.864 338.49 230.266 354.935 231.398C363.79 232.008 364.734 231.896 366.779 229.992C368.251 228.62 369 226.75 369 224.446C369 221.604 368.413 220.614 365.783 219.014C358.901 214.829 344.97 214.531 334.558 218.347L327.616 220.891L323.611 217.945C321.408 216.325 317.717 215 317 215C317 217.945 317 219.522 317 236.622ZM42.419 217.022C38.261 218.301 35.667 221.389 35.667 225.061C35.667 230.686 37.642 231.5 51.287 231.5C61.938 231.5 64.012 231.778 67.5 233.676C73.567 236.977 77.807 241.389 80.525 247.225C83.593 253.815 83.588 254.513 80.445 258.248C79.039 259.919 76.782 263.471 75.428 266.143C73.392 270.16 72.494 271.002 70.233 271.01C65.86 271.025 57.813 275.339 53.75 279.846C47.56 286.713 49.216 294 56.967 294C59.438 294 61.376 292.987 64.616 290C68.304 286.6 69.614 286 73.343 286C78.602 286 82.179 288.47 85.04 294.079C88.18 300.233 95.652 300.656 98.903 294.863C100.213 292.53 100.176 291.748 98.55 287.493C97.55 284.875 94.97 280.97 92.815 278.815C88.447 274.447 88.431 273.018 92.695 267.951C98.916 260.558 111.876 258.142 120.628 262.745C124.445 264.752 133 273.269 133 275.061C133 275.49 134.368 276.142 136.041 276.509C139.592 277.289 143.648 275.094 144.94 271.692C147.046 266.149 137.106 254.111 126 248.753C120.335 246.021 118.408 245.61 111 245.559C106.325 245.527 101.079 245.864 99.342 246.309C96.394 247.065 96.141 246.918 95.524 244.108C94.593 239.87 88.077 230.133 83.474 226.103C81.341 224.234 76.648 221.319 73.047 219.624C67.201 216.873 65.375 216.518 56 216.309C50.225 216.18 44.113 216.501 42.419 217.022Z" fill="#313ab1"/>
</svg>
