<svg id="smallLogo" width="406" height="316" fill="#313ab1" viewBox="0 0 406 316"  xmlns="http://www.w3.org/2000/svg">
<path fill-rule="evenodd" clip-rule="evenodd" d="M207 1.55401C198.717 3.33201 192.861 5.49202 186.215 9.22102C182.306 11.415 180.593 11.907 179.636 11.113C176.756 8.72302 164.103 4.808 156.443 3.938C133.925 1.379 111.572 9.863 95.719 26.986C89.429 33.78 89.145 33.953 81.747 35.481C63.898 39.168 52.947 44.857 41.459 56.412C32.214 65.71 27.181 74.67 24.058 87.381C22.868 92.228 21.203 96.271 19.734 97.881C11.388 107.03 3.85299 121.474 1.39499 133.035C-0.805013 143.381 -0.0359974 161.887 2.992 171.5C10.49 195.3 27.23 212.61 50.5 220.625C57.942 223.188 59.88 223.409 78.279 223.795L98.057 224.21L99.634 227.258C100.501 228.935 104.451 233.548 108.413 237.51C113.842 242.939 117.695 245.731 124.058 248.847C138.763 256.047 140.549 256.315 176.75 256.755L209 257.147V282.088V307.029L212.251 310.576C214.636 313.179 216.589 314.269 219.588 314.672C224.39 315.316 225.713 314.714 242.263 304.36C248.733 300.312 254.437 297 254.938 297C255.44 297 262.296 301.045 270.175 305.988C287.081 316.595 289.67 317.161 295.765 311.579L299.5 308.159L299.822 293.663L300.145 279.168L305.322 278.468C322.857 276.097 340.414 263.111 348.544 246.5C352.068 239.299 355 229.542 355 225.012C355 222.805 355.928 222.041 361.627 219.558C390.786 206.855 407.239 179.441 405.74 146.058C404.721 123.376 395.524 105.154 377.423 89.953C371.046 84.598 370.227 83.49 369.143 78.755C367.014 69.457 360.386 57.616 352.708 49.394C336.827 32.389 317.185 23.74 295.237 24.087L284.974 24.25L280.081 19.672C270.628 10.831 257.847 4.347 244.143 1.443C235.728 -0.340996 215.547 -0.279988 207 1.55401ZM245.202 29.833C257.164 34.083 266.618 41.632 270.262 49.844C271.718 53.127 272.516 57.663 272.965 65.224C273.655 76.827 274.815 79.273 281.2 82.595C287.198 85.716 294.848 82.747 298.248 75.98C300.231 72.034 300.559 62.138 298.941 55.118C298.385 52.708 298.175 50.492 298.474 50.193C299.705 48.962 311.994 52.202 318.773 55.545C328.383 60.285 336.096 67.869 340.272 76.685C343.24 82.951 343.5 84.306 343.5 93.5C343.5 102.265 343.168 104.209 340.811 109.238C339.237 112.597 335.194 118.069 331.061 122.436C324.257 129.625 324 130.077 324 134.877C324 139.139 324.476 140.363 327.304 143.36C333.44 149.867 340.426 149.488 348.188 142.227C353.108 137.625 364.198 122.104 365.502 117.994C366.159 115.925 366.247 115.914 368.167 117.651C369.259 118.64 371.67 122.162 373.525 125.479C386.324 148.365 379.556 178.162 358.53 191.496C348.797 197.668 345.67 198.281 321.5 198.752L299.5 199.18L299.444 151.84C299.392 107.074 299.285 104.343 297.49 101.614C293.897 96.151 285.154 94.389 279.314 97.95C273.809 101.307 273.543 102.535 273 127.168L272.5 149.835L269.5 154.079C261.236 165.767 245.377 165.302 238.241 153.163L235.5 148.5L235 109.329L234.5 70.158L232.06 67.562C226.645 61.802 218.222 62.027 212.415 68.088L209.5 71.131L209.232 151.065L208.965 231H180.666C164.597 231 149.803 230.53 146.434 229.913C134.32 227.694 124.836 220.495 119.407 209.399C114.118 198.59 112.092 197.891 86.596 198.085C63.392 198.261 58.315 197.206 47.17 189.893C32.634 180.354 25.247 164.637 26.175 145.225C26.553 137.315 27.065 135.253 30.251 128.807C32.45 124.358 36.628 118.436 40.788 113.872C47.613 106.386 47.688 106.24 48.327 99.405C49.59 85.88 58.587 73.347 71.767 66.753C78.118 63.576 88.539 60.912 100.321 59.453C104.673 58.914 105.453 58.403 108.321 54.213C113.196 47.093 119.685 40.41 125.1 36.936C134.734 30.754 147.954 28.449 158.519 31.109L162.923 32.218L160.454 37.09C155.315 47.232 154.745 51.937 154.1 89.5L153.5 124.5L150.903 130C147.372 137.477 141.136 143.568 133.159 147.333C127.242 150.125 125.497 150.476 117.5 150.487C110.035 150.498 107.679 150.096 103.684 148.129C92.722 142.731 89.694 128.843 97.057 117.728C101.325 111.285 106.781 108.051 116.139 106.417C127.741 104.392 131 101.469 131 93.088C131 85.736 124.625 80.99 114.782 81.012C95.501 81.055 77.771 94.309 69.985 114.5C66.81 122.733 66.754 136.844 69.863 145.419C77.367 166.118 95.505 177.798 118.677 176.85L125.855 176.557L129.969 181.724C139.065 193.148 156.424 202 169.731 202C179.161 202 184 197.574 184 188.95C184 183.588 179.3 178.491 173.429 177.484C165.738 176.166 162.407 175.01 157.704 172.027C152.147 168.503 150.843 166.196 153.596 164.757C157.984 162.463 169.666 149.162 173.156 142.485C179.496 130.356 179.993 127.372 180.058 101.068C180.14 67.637 181.056 56.746 184.407 49.401C189.292 38.693 199.756 30.644 212.236 27.996C219.482 26.458 238.719 27.53 245.202 29.833ZM254.367 187.089C258.84 187.083 264.75 186.391 267.5 185.55C270.25 184.709 272.612 184.017 272.75 184.011C272.888 184.005 273 205.399 273 231.553V279.106L265.75 274.097C255.36 266.919 255.043 266.909 244.624 273.45C239.762 276.502 235.608 279 235.392 279C235.176 279 235 257.434 235 231.076V183.151L240.617 185.126C244.456 186.475 248.81 187.097 254.367 187.089ZM327.603 228.236C325.341 239.545 314.647 249.847 302.5 252.418L299.5 253.052L299.803 239.026L300.105 225H314.178H328.25L327.603 228.236Z" fill="#313ab1"/>
</svg>
